<svg xmlns="http://www.w3.org/2000/svg" width="24" height="24" viewBox="0 0 24 24">
  <g id="Group_79" data-name="Group 79" transform="translate(-1631 -50)">
    <rect id="Rectangle_155" data-name="Rectangle 155" width="24" height="24" transform="translate(1631 50)" fill="rgba(255,255,255,0)"/>
    <path id="Profile" d="M12,2a5.335,5.335,0,1,0,5.312,5.335A5.324,5.324,0,0,0,12,2Zm0,1.448A3.888,3.888,0,1,1,8.133,7.335,3.879,3.879,0,0,1,12,3.448ZM9.83,14.821a16.72,16.72,0,0,0-2.339.331,4.346,4.346,0,0,0-3.2,1.948A2.882,2.882,0,0,0,4,18.363a2.93,2.93,0,0,0,.281,1.253,3.988,3.988,0,0,0,2.976,1.9l.256.053a15.368,15.368,0,0,0,2.332.339,2.271,2.271,0,0,0,.4.047l.144.005c.074,0,.158,0,.284,0a25.118,25.118,0,0,0,3.491-.056,15.659,15.659,0,0,0,1.88-.244l.467-.1c1.542-.3,2.7-.883,3.2-1.95a2.927,2.927,0,0,0,0-2.5c-.5-1.064-1.645-1.638-3.215-1.962a16.926,16.926,0,0,0-1.873-.291l-.461-.039A24.685,24.685,0,0,0,9.83,14.821Zm4.214,1.442h.013a15.526,15.526,0,0,1,2.153.3c1.166.24,1.958.639,2.208,1.167a1.472,1.472,0,0,1,0,1.26A2.8,2.8,0,0,1,16.444,20.1l-.225.048a14.426,14.426,0,0,1-2.162.315,24.061,24.061,0,0,1-3.343.052l-.394-.007a1.94,1.94,0,0,1-.287-.033,15.523,15.523,0,0,1-1.874-.249l-.353-.075c-1.17-.229-1.969-.629-2.228-1.165a1.475,1.475,0,0,1-.139-.628,1.423,1.423,0,0,1,.14-.623,3.231,3.231,0,0,1,2.2-1.169,15.391,15.391,0,0,1,2.157-.305A23.3,23.3,0,0,1,14.044,16.263Z" transform="translate(1631 50)" fill="#222"/>
  </g>
</svg>
